<?xml version="1.0" encoding="iso-8859-1"?>
<!-- Generator: Adobe Illustrator 19.0.0, SVG Export Plug-In . SVG Version: 6.00 Build 0)  -->
<svg version="1.1" id="Layer_1" xmlns="http://www.w3.org/2000/svg" xmlns:xlink="http://www.w3.org/1999/xlink" x="0px" y="0px"
	 viewBox="0 0 512.002 512.002" style="enable-background:new 0 0 512.002 512.002;" xml:space="preserve">
<g>
	<g>
		<g>
			<path d="M55.519,281.218c0-39.967,32.515-72.482,72.482-72.482s72.482,32.515,72.482,72.482v41.639h43.952v-41.639
				c0-39.967,32.515-72.482,72.482-72.482c39.967,0,72.482,32.515,72.482,72.482v41.639h43.952v-41.639
				c0-39.967,32.515-72.482,72.482-72.482c0.597,0,1.191,0.025,1.784,0.04c-1.109-5.922-2.415-11.774-3.925-17.545L8.449,190.715
				C2.946,211.565,0.001,233.444,0.001,256c0,23.123,3.1,45.534,8.874,66.856h46.644V281.218z"/>
			<path d="M256.001,0C164.657,0,84.347,48.099,39.032,120.289H472.97C427.655,48.099,347.345,0,256.001,0z"/>
			<path d="M489.522,151.133H22.479c-1.376,3.052-2.683,6.139-3.94,9.253h474.923C492.204,157.272,490.898,154.184,489.522,151.133z
				"/>
			<path d="M346.989,425.639h100.56c40.075-45.201,64.452-104.622,64.452-169.639c0-5.374-0.187-10.707-0.515-16
				c-1.866-0.253-3.747-0.421-5.654-0.421c-22.96,0-41.639,18.679-41.639,41.639v57.06c0,8.516-6.906,15.422-15.422,15.422h-74.795
				c-8.516,0-15.422-6.906-15.422-15.422v-57.06c0-22.96-18.679-41.639-41.639-41.639c-22.96,0-41.639,18.679-41.639,41.639v57.06
				c0,8.516-6.906,15.422-15.422,15.422h-74.795c-8.516,0-15.422-6.906-15.422-15.422v-57.06c0-22.96-18.679-41.639-41.639-41.639
				c-22.96,0-41.639,18.679-41.639,41.639v57.06c0,8.516-6.906,15.422-15.422,15.422H19.392c3.124,7.538,6.599,14.896,10.404,22.053
				h41.145c8.516,0,15.422,6.906,15.422,15.422s-6.906,15.422-15.422,15.422H49.117c2.816,3.859,5.732,7.641,8.755,11.333h31.574
				c8.516,0,15.422,6.906,15.422,15.422s-6.906,15.422-15.422,15.422h-1.706c45.027,39.352,103.904,63.229,168.26,63.229
				c60.035-0.002,115.303-20.784,159.007-55.52h-68.019c-8.516,0-15.422-6.906-15.422-15.422S338.473,425.639,346.989,425.639z
				 M373.206,375.751h78.651c8.516,0,15.422,6.906,15.422,15.422s-6.906,15.422-15.422,15.422h-78.651
				c-8.516,0-15.422-6.906-15.422-15.422S364.69,375.751,373.206,375.751z M183.519,375.751h70.169
				c8.516,0,15.422,6.906,15.422,15.422s-6.906,15.422-15.422,15.422h-70.169c-8.516,0-15.422-6.906-15.422-15.422
				S175.003,375.751,183.519,375.751z M286.844,456.482H154.218c-8.516,0-15.422-6.906-15.422-15.422s6.906-15.422,15.422-15.422
				h132.627c8.516,0,15.422,6.906,15.422,15.422S295.36,456.482,286.844,456.482z"/>
		</g>
	</g>
</g>
<g>
</g>
<g>
</g>
<g>
</g>
<g>
</g>
<g>
</g>
<g>
</g>
<g>
</g>
<g>
</g>
<g>
</g>
<g>
</g>
<g>
</g>
<g>
</g>
<g>
</g>
<g>
</g>
<g>
</g>
</svg>
